<?xml version="1.0" encoding="UTF-8"?>
<svg version="1.1" xmlns="http://www.w3.org/2000/svg" width="64" height="64">
<path d="M0 0 C5.75889634 -0.34553378 10.06169381 -0.36702695 15 3 C17.90958391 5.97571082 19.73682081 8.12273603 20.9375 12.125 C21.77120032 15.28231836 21.77120032 15.28231836 25 16.875 C28.5818549 19.41214722 29.1050831 20.9247504 29.8984375 25.09375 C30.02956335 27.55488132 29.47299994 29.03600008 28 31 C27.34 31 26.68 31 26 31 C26 31.66 26 32.32 26 33 C25.34 33 24.68 33 24 33 C24 33.66 24 34.32 24 35 C23.01 35.495 23.01 35.495 22 36 C21.53476937 37.89533342 21.53476937 37.89533342 21.375 40.0625 C21.25125 41.361875 21.1275 42.66125 21 44 C21.99 43.34 22.98 42.68 24 42 C26.625 41.8125 26.625 41.8125 29 42 C30 43 30 43 30.0625 45.5625 C30.041875 46.366875 30.02125 47.17125 30 48 C25.48281619 49.36884358 22.41225737 48.47075246 18 47 C18 43.37 18 39.74 18 36 C16.35 36 14.7 36 13 36 C13.11398665 37.62580966 13.24155659 39.25067157 13.375 40.875 C13.47941406 42.23238281 13.47941406 42.23238281 13.5859375 43.6171875 C13.79568132 46.17941903 13.79568132 46.17941903 16 48 C16.39460023 50.32375692 16.72230092 52.6593935 17 55 C17.20625 55.94875 17.4125 56.8975 17.625 57.875 C17.74875 58.57625 17.8725 59.2775 18 60 C17 61 17 61 14.4375 61.0625 C13.633125 61.041875 12.82875 61.02125 12 61 C11.61781233 59.34385343 11.28604898 57.67542976 11 56 C11.33 55.67 11.66 55.34 12 55 C12.25005386 52.04182893 12.25005386 52.04182893 12 49 C11.34 48.34 10.68 47.68 10 47 C9.8046875 44.3984375 9.8046875 44.3984375 9.875 41.375 C9.89304688 40.37210938 9.91109375 39.36921875 9.9296875 38.3359375 C9.95289063 37.56507812 9.97609375 36.79421875 10 36 C9.34 36 8.68 36 8 36 C8.01160156 37.09699219 8.02320313 38.19398437 8.03515625 39.32421875 C8.04453964 40.77864412 8.05363925 42.23307135 8.0625 43.6875 C8.07087891 44.40873047 8.07925781 45.12996094 8.08789062 45.87304688 C8.10552129 49.7341625 7.81315124 53.23490478 7 57 C7.30404678 58.67225729 7.63128912 60.34080104 8 62 C7 63 7 63 4.4375 63.0625 C3.633125 63.041875 2.82875 63.02125 2 63 C0.63988473 58.9196542 1.39822961 57.11868203 3.23046875 53.37890625 C5.00187852 47.90282225 4.78627623 41.72632312 5 36 C3.68 36 2.36 36 1 36 C1.33 36.886875 1.66 37.77375 2 38.6875 C2.91222143 41.70923347 3.18330958 43.88373706 3 47 C0.03 47.495 0.03 47.495 -3 48 C-4.11658501 43.31034294 -3.80619523 40.46236469 -2 36 C-3.65 36 -5.3 36 -7 36 C-6.88610125 37.79240663 -6.75852313 39.58394835 -6.625 41.375 C-6.55539063 42.37273438 -6.48578125 43.37046875 -6.4140625 44.3984375 C-6.23636036 47.15508879 -6.23636036 47.15508879 -4 49 C-2.07507115 52.74854566 -1.84296481 54.95037684 -3 59 C-4.875 59.625 -4.875 59.625 -7 60 C-7.66 59.34 -8.32 58.68 -9 58 C-8.63723355 55.17042171 -7.90305236 52.70915709 -7 50 C-8.485 49.505 -8.485 49.505 -10 49 C-10 44.71 -10 40.42 -10 36 C-11.32 36 -12.64 36 -14 36 C-13.85820962 38.22942748 -13.71140302 40.45853628 -13.5625 42.6875 C-13.44068359 44.54955078 -13.44068359 44.54955078 -13.31640625 46.44921875 C-13.07642111 49.90878613 -13.07642111 49.90878613 -12.40234375 52.89453125 C-12.26957031 53.58933594 -12.13679688 54.28414062 -12 55 C-13 56 -13 56 -15.5625 56.0625 C-16.366875 56.041875 -17.17125 56.02125 -18 56 C-18.38218767 54.34385343 -18.71395102 52.67542976 -19 51 C-18.505 50.505 -18.505 50.505 -18 50 C-17.76472227 47.65012738 -17.58613583 45.29443961 -17.4375 42.9375 C-17.35371094 41.64714844 -17.26992188 40.35679688 -17.18359375 39.02734375 C-17.12300781 38.02832031 -17.06242187 37.02929688 -17 36 C-17.99 36 -18.98 36 -20 36 C-20 39.63 -20 43.26 -20 47 C-24.12168689 48.62950412 -26.70700357 49.26264601 -31 48 C-31.042721 46.33388095 -31.04063832 44.66617115 -31 43 C-30 42 -30 42 -27.4375 41.9375 C-26.633125 41.958125 -25.82875 41.97875 -25 42 C-25 42.66 -25 43.32 -25 44 C-24.34 44 -23.68 44 -23 44 C-23.38550239 37.34888338 -23.38550239 37.34888338 -27 32 C-27.99 31.67 -28.98 31.34 -30 31 C-30.81163525 27.23696384 -31.32502401 24.81256003 -29.875 21.1875 C-28 19 -28 19 -25.4375 18.0625 C-24.633125 17.711875 -23.82875 17.36125 -23 17 C-21.84164327 14.02496878 -21.84164327 14.02496878 -21 11 C-18 9 -18 9 -14.5625 8.6875 C-10.83801006 8.3264533 -10.83801006 8.3264533 -8.5625 5.4375 C-8.046875 4.633125 -7.53125 3.82875 -7 3 C-4.525 3.495 -4.525 3.495 -2 4 C-1.34 2.68 -0.68 1.36 0 0 Z " fill="#A9CEFD" transform="translate(32,0)"/>
<path d="M0 0 C16.17 0 32.34 0 49 0 C49 0.66 49 1.32 49 2 C48.34 2.33 47.68 2.66 47 3 C46.53476937 4.89533342 46.53476937 4.89533342 46.375 7.0625 C46.189375 9.0115625 46.189375 9.0115625 46 11 C46.99 10.34 47.98 9.68 49 9 C51.625 8.8125 51.625 8.8125 54 9 C55 10 55 10 55.0625 12.5625 C55.041875 13.366875 55.02125 14.17125 55 15 C50.48281619 16.36884358 47.41225737 15.47075246 43 14 C43 10.37 43 6.74 43 3 C41.35 3 39.7 3 38 3 C38.11398665 4.62580966 38.24155659 6.25067157 38.375 7.875 C38.47941406 9.23238281 38.47941406 9.23238281 38.5859375 10.6171875 C38.79568132 13.17941903 38.79568132 13.17941903 41 15 C41.39460023 17.32375692 41.72230092 19.6593935 42 22 C42.20625 22.94875 42.4125 23.8975 42.625 24.875 C42.810625 25.926875 42.810625 25.926875 43 27 C42 28 42 28 39.4375 28.0625 C38.633125 28.041875 37.82875 28.02125 37 28 C36.61781233 26.34385343 36.28604898 24.67542976 36 23 C36.495 22.505 36.495 22.505 37 22 C37.25005386 19.04182893 37.25005386 19.04182893 37 16 C36.34 15.34 35.68 14.68 35 14 C34.8046875 11.3984375 34.8046875 11.3984375 34.875 8.375 C34.89304688 7.37210938 34.91109375 6.36921875 34.9296875 5.3359375 C34.95289063 4.56507812 34.97609375 3.79421875 35 3 C34.34 3 33.68 3 33 3 C33.01160156 4.09699219 33.02320313 5.19398437 33.03515625 6.32421875 C33.04453964 7.77864412 33.05363925 9.23307135 33.0625 10.6875 C33.07087891 11.40873047 33.07925781 12.12996094 33.08789062 12.87304688 C33.10552129 16.7341625 32.81315124 20.23490478 32 24 C32.30404678 25.67225729 32.63128912 27.34080104 33 29 C32 30 32 30 29.4375 30.0625 C28.633125 30.041875 27.82875 30.02125 27 30 C25.63988473 25.9196542 26.39822961 24.11868203 28.23046875 20.37890625 C30.00187852 14.90282225 29.78627623 8.72632312 30 3 C28.68 3 27.36 3 26 3 C26.495 4.3303125 26.495 4.3303125 27 5.6875 C27.91222143 8.70923347 28.18330958 10.88373706 28 14 C26.02 14.33 24.04 14.66 22 15 C20.88341499 10.31034294 21.19380477 7.46236469 23 3 C21.35 3 19.7 3 18 3 C18.11389875 4.79240663 18.24147687 6.58394835 18.375 8.375 C18.44460937 9.37273438 18.51421875 10.37046875 18.5859375 11.3984375 C18.76363964 14.15508879 18.76363964 14.15508879 21 16 C22.92492885 19.74854566 23.15703519 21.95037684 22 26 C20.125 26.625 20.125 26.625 18 27 C17.34 26.34 16.68 25.68 16 25 C16.36276645 22.17042171 17.09694764 19.70915709 18 17 C17.01 16.67 16.02 16.34 15 16 C15 11.71 15 7.42 15 3 C13.68 3 12.36 3 11 3 C11.14179038 5.22942748 11.28859698 7.45853628 11.4375 9.6875 C11.51871094 10.92886719 11.59992187 12.17023437 11.68359375 13.44921875 C11.92357889 16.90878613 11.92357889 16.90878613 12.59765625 19.89453125 C12.79681641 20.93673828 12.79681641 20.93673828 13 22 C12 23 12 23 9.4375 23.0625 C8.633125 23.041875 7.82875 23.02125 7 23 C6.61781233 21.34385343 6.28604898 19.67542976 6 18 C6.33 17.67 6.66 17.34 7 17 C7.23527773 14.65012738 7.41386417 12.29443961 7.5625 9.9375 C7.64628906 8.64714844 7.73007813 7.35679688 7.81640625 6.02734375 C7.87699219 5.02832031 7.93757812 4.02929688 8 3 C7.01 3 6.02 3 5 3 C5 6.63 5 10.26 5 14 C0.87831311 15.62950412 -1.70700357 16.26264601 -6 15 C-6.042721 13.33388095 -6.04063832 11.66617115 -6 10 C-5 9 -5 9 -2.4375 8.9375 C-1.633125 8.958125 -0.82875 8.97875 0 9 C0 9.66 0 10.32 0 11 C0.66 11 1.32 11 2 11 C1.855625 9.741875 1.71125 8.48375 1.5625 7.1875 C1.48128906 6.47980469 1.40007813 5.77210937 1.31640625 5.04296875 C1.02829265 2.80603607 1.02829265 2.80603607 0 0 Z " fill="#0D34D7" transform="translate(7,33)"/>
<path d="M0 0 C1.32 0 2.64 0 4 0 C2.34832443 3.5786304 0.21713508 6.74820188 -2 10 C-3.32 9.67 -4.64 9.34 -6 9 C-6 11.64 -6 14.28 -6 17 C-4.35 17 -2.7 17 -1 17 C-0.67 16.01 -0.34 15.02 0 14 C1.32 14.33 2.64 14.66 4 15 C4.33 16.32 4.66 17.64 5 19 C0.74500059 20.16045439 -2.68895139 19.82904781 -7 19 C-9.04698414 16.95301586 -8.70045693 12.69588759 -9 10 C-10.81860483 11.65327712 -11.92938686 12.82851095 -12.875 15.125 C-14 17 -14 17 -16.625 17.75 C-17.40875 17.8325 -18.1925 17.915 -19 18 C-19.33 19.32 -19.66 20.64 -20 22 C-17.69 22 -15.38 22 -13 22 C-13 21.34 -13 20.68 -13 20 C-11.35 20.33 -9.7 20.66 -8 21 C-8.33 22.65 -8.66 24.3 -9 26 C-9.515625 25.835 -10.03125 25.67 -10.5625 25.5 C-13.73363876 24.84951 -16.77218334 24.9379266 -20 25 C-20 26.32 -20 27.64 -20 29 C-20.99 28.67 -21.98 28.34 -23 28 C-23.81163525 24.23696384 -24.32502401 21.81256003 -22.875 18.1875 C-21 16 -21 16 -18.4375 15.0625 C-17.633125 14.711875 -16.82875 14.36125 -16 14 C-14.84164327 11.02496878 -14.84164327 11.02496878 -14 8 C-11 6 -11 6 -7.5625 5.6875 C-3.19051869 4.84378431 -2.57013949 3.45639448 0 0 Z " fill="#0228D6" transform="translate(25,3)"/>
<path d="M0 0 C5.75889634 -0.34553378 10.06169381 -0.36702695 15 3 C17.90958391 5.97571082 19.73682081 8.12273603 20.9375 12.125 C21.77120032 15.28231836 21.77120032 15.28231836 25 16.875 C28.5818549 19.41214722 29.1050831 20.9247504 29.8984375 25.09375 C30.02956335 27.55488132 29.47299994 29.03600008 28 31 C27.34 31 26.68 31 26 31 C26.33 29.68 26.66 28.36 27 27 C19.95792295 27.7187807 19.95792295 27.7187807 13 29 C12.67 27.35 12.34 25.7 12 24 C13.65614657 23.61781233 15.32457024 23.28604898 17 23 C17.33 23.33 17.66 23.66 18 24 C19.51469448 24.23192865 21.03754562 24.41215238 22.5625 24.5625 C23.38878906 24.64628906 24.21507813 24.73007812 25.06640625 24.81640625 C26.02353516 24.90728516 26.02353516 24.90728516 27 25 C25.82619087 22.51364756 25.82619087 22.51364756 24 20 C23.175 19.7525 22.35 19.505 21.5 19.25 C19 18 19 18 18.15234375 16.0234375 C17.67355795 14.41701956 17.20488309 12.80755528 16.74609375 11.1953125 C15.77147932 8.32759883 14.40788842 6.80591631 12 5 C11.01 4.67 10.02 4.34 9 4 C9.0721875 4.96421875 9.144375 5.9284375 9.21875 6.921875 C9.3115625 8.18515625 9.404375 9.4484375 9.5 10.75 C9.5928125 12.00296875 9.685625 13.2559375 9.78125 14.546875 C9.93838402 17.02734771 10 19.51455517 10 22 C8.68 22.33 7.36 22.66 6 23 C5.61781233 21.34385343 5.28604898 19.67542976 5 18 C5.33 17.67 5.66 17.34 6 17 C6.23527773 14.65012738 6.41386417 12.29443961 6.5625 9.9375 C6.64628906 8.64714844 6.73007812 7.35679687 6.81640625 6.02734375 C6.87699219 5.02832031 6.93757813 4.02929688 7 3 C4.36 3 1.72 3 -1 3 C-0.67 2.01 -0.34 1.02 0 0 Z " fill="#0B33D7" transform="translate(32,0)"/>
<path d="M0 0 C0.33 0 0.66 0 1 0 C1.04898438 0.89203125 1.09796875 1.7840625 1.1484375 2.703125 C1.22320312 3.87359375 1.29796875 5.0440625 1.375 6.25 C1.44460937 7.41015625 1.51421875 8.5703125 1.5859375 9.765625 C1.96248308 12.70694334 2.4774123 14.49949011 4 17 C3.34 17.66 2.68 18.32 2 19 C0.68 18.67 -0.64 18.34 -2 18 C-1.34 12.06 -0.68 6.12 0 0 Z " fill="#032AD5" transform="translate(39,4)"/>
<path d="M0 0 C1.32 0.33 2.64 0.66 4 1 C4.33 2.32 4.66 3.64 5 5 C0.74433453 6.16063604 -2.6835078 5.76173392 -7 5 C-3.25 3 -3.25 3 -1 3 C-0.67 2.01 -0.34 1.02 0 0 Z " fill="#3357DF" transform="translate(25,17)"/>
<path d="M0 0 C1.65 0.33 3.3 0.66 5 1 C4.67 2.65 4.34 4.3 4 6 C0.30099992 5.11223998 -3.34550461 4.05418136 -7 3 C-7 2.67 -7 2.34 -7 2 C-4.69 2 -2.38 2 0 2 C0 1.34 0 0.68 0 0 Z " fill="#0D34D7" transform="translate(12,23)"/>
<path d="M0 0 C1.65 0.33 3.3 0.66 5 1 C4.67 2.65 4.34 4.3 4 6 C2.35 5.67 0.7 5.34 -1 5 C-0.67 3.35 -0.34 1.7 0 0 Z " fill="#2F53DE" transform="translate(45,23)"/>
<path d="M0 0 C1.98 0 3.96 0 6 0 C5.34 1.32 4.68 2.64 4 4 C2.68 3.67 1.36 3.34 0 3 C0 2.01 0 1.02 0 0 Z " fill="#3B5DE0" transform="translate(37,19)"/>
<path d="M0 0 C1.32 0 2.64 0 4 0 C4.33 0.99 4.66 1.98 5 3 C3.68 3.33 2.36 3.66 1 4 C0.34 3.01 -0.32 2.02 -1 1 C-0.67 0.67 -0.34 0.34 0 0 Z " fill="#3D5FE0" transform="translate(12,25)"/>
</svg>
