<?xml version="1.0" encoding="UTF-8"?>
<svg version="1.1" xmlns="http://www.w3.org/2000/svg" width="64" height="64">
<path d="M0 0 C1.15790039 -0.00315216 2.31580078 -0.00630432 3.50878906 -0.009552 C4.76916992 -0.00752777 6.02955078 -0.00550354 7.328125 -0.00341797 C8.61170898 -0.00437469 9.89529297 -0.00533142 11.21777344 -0.00631714 C13.93816324 -0.00779378 16.65852025 -0.00564066 19.37890625 -0.00097656 C22.87297169 0.00472073 26.36696033 0.00144154 29.86102295 -0.00454903 C33.18339653 -0.00902301 36.50574923 -0.00589432 39.828125 -0.00341797 C41.08850586 -0.0054422 42.34888672 -0.00746643 43.64746094 -0.009552 C44.80536133 -0.00639984 45.96326172 -0.00324768 47.15625 0 C48.18137695 0.00079559 49.20650391 0.00159119 50.26269531 0.00241089 C52.578125 0.12939453 52.578125 0.12939453 53.578125 1.12939453 C53.66664029 3.72298775 53.69338445 6.28979144 53.67578125 8.88330078 C53.6743663 9.65874741 53.67295135 10.43419403 53.67149353 11.23313904 C53.66587845 13.71942947 53.65332346 16.20563113 53.640625 18.69189453 C53.63561194 20.37353386 53.6310487 22.05517459 53.62695312 23.73681641 C53.61590413 27.86771019 53.59862945 31.99853729 53.578125 36.12939453 C54.238125 36.12939453 54.898125 36.12939453 55.578125 36.12939453 C56.36128587 45.09223555 56.36128587 45.09223555 53.265625 49.19189453 C49.71713921 51.75010522 47.18676911 52.25539378 42.92651367 52.29052734 C41.98511032 52.30013489 41.04370697 52.30974243 40.07377625 52.31964111 C38.55032341 52.32601593 38.55032341 52.32601593 36.99609375 52.33251953 C35.94915848 52.3382196 34.90222321 52.34391968 33.82356262 52.34979248 C31.60691336 52.3592422 29.39025004 52.36577635 27.17358398 52.36962891 C23.7893001 52.37932669 20.40562551 52.41034766 17.02148438 52.44189453 C14.8671911 52.44842552 12.71289349 52.45367561 10.55859375 52.45751953 C9.54903122 52.46986633 8.53946869 52.48221313 7.49931335 52.49493408 C2.1285381 52.47798287 -1.83643384 52.26378158 -6.421875 49.12939453 C-8.631015 45.81568453 -8.64669053 44.78479244 -8.546875 40.94189453 C-8.52882813 40.04083984 -8.51078125 39.13978516 -8.4921875 38.21142578 C-8.46898437 37.52435547 -8.44578125 36.83728516 -8.421875 36.12939453 C-7.761875 36.12939453 -7.101875 36.12939453 -6.421875 36.12939453 C-6.42711182 35.07437744 -6.43234863 34.01936035 -6.43774414 32.93237305 C-6.45579401 29.03182823 -6.46730695 25.13128714 -6.47680664 21.23071289 C-6.4818469 19.53995138 -6.48867905 17.84919424 -6.49731445 16.15844727 C-6.50939357 13.73338746 -6.51510623 11.30838509 -6.51953125 8.88330078 C-6.52469254 8.12287979 -6.52985382 7.3624588 -6.53517151 6.57899475 C-6.53536738 4.76206883 -6.48384777 2.94526326 -6.421875 1.12939453 C-4.69119801 -0.60128246 -2.35698696 0.00182924 0 0 Z M-2.421875 5.12939453 C-2.421875 15.35939453 -2.421875 25.58939453 -2.421875 36.12939453 C-1.761875 36.12939453 -1.101875 36.12939453 -0.421875 36.12939453 C-0.091875 26.88939453 0.238125 17.64939453 0.578125 8.12939453 C15.758125 8.12939453 30.938125 8.12939453 46.578125 8.12939453 C46.908125 17.36939453 47.238125 26.60939453 47.578125 36.12939453 C48.238125 36.12939453 48.898125 36.12939453 49.578125 36.12939453 C49.578125 25.89939453 49.578125 15.66939453 49.578125 5.12939453 C32.418125 5.12939453 15.258125 5.12939453 -2.421875 5.12939453 Z M4.578125 12.12939453 C4.578125 20.04939453 4.578125 27.96939453 4.578125 36.12939453 C8.208125 36.12939453 11.838125 36.12939453 15.578125 36.12939453 C15.908125 37.44939453 16.238125 38.76939453 16.578125 40.12939453 C21.198125 40.12939453 25.818125 40.12939453 30.578125 40.12939453 C30.908125 38.80939453 31.238125 37.48939453 31.578125 36.12939453 C35.208125 36.12939453 38.838125 36.12939453 42.578125 36.12939453 C42.578125 28.20939453 42.578125 20.28939453 42.578125 12.12939453 C30.038125 12.12939453 17.498125 12.12939453 4.578125 12.12939453 Z M-4.421875 41.12939453 C-3.761875 42.77939453 -3.101875 44.42939453 -2.421875 46.12939453 C0.40151654 47.07052505 2.15324709 47.26069616 5.07788086 47.2746582 C6.4396067 47.28422798 6.4396067 47.28422798 7.82884216 47.29399109 C9.29608482 47.29566032 9.29608482 47.29566032 10.79296875 47.29736328 C12.30389854 47.30235588 12.30389854 47.30235588 13.84535217 47.30744934 C15.9762425 47.31251319 18.10714077 47.31485783 20.23803711 47.31469727 C23.49931893 47.3168836 26.76026243 47.33504475 30.02148438 47.35400391 C32.09114468 47.35693795 34.16080658 47.35892267 36.23046875 47.35986328 C37.20660629 47.3670488 38.18274384 47.37423431 39.1884613 47.38163757 C40.09943069 47.37856094 41.01040009 47.37548431 41.94897461 47.37231445 C43.14785561 47.37445198 43.14785561 47.37445198 44.37095642 47.37663269 C46.91838238 47.09128027 48.47107799 46.59671388 50.578125 45.12939453 C50.908125 43.80939453 51.238125 42.48939453 51.578125 41.12939453 C46.298125 41.12939453 41.018125 41.12939453 35.578125 41.12939453 C35.248125 42.11939453 34.918125 43.10939453 34.578125 44.12939453 C27.318125 44.12939453 20.058125 44.12939453 12.578125 44.12939453 C12.248125 43.13939453 11.918125 42.14939453 11.578125 41.12939453 C6.298125 41.12939453 1.018125 41.12939453 -4.421875 41.12939453 Z " fill="#3674D5" transform="translate(8.421875,5.87060546875)"/>
</svg>
