<?xml version="1.0" encoding="UTF-8"?>
<svg version="1.1" xmlns="http://www.w3.org/2000/svg" width="64" height="64">
<path d="M0 0 C2.5 0.125 2.5 0.125 3.5 1.125 C3.625 3.625 3.625 3.625 3.5 6.125 C3.17 6.455 2.84 6.785 2.5 7.125 C2.30683287 9.15325491 2.11674212 11.18223921 1.9765625 13.21484375 C1.5 15.125 1.5 15.125 -1.5 17.125 C0.48 17.455 2.46 17.785 4.5 18.125 C4.5 19.115 4.5 20.105 4.5 21.125 C0.54 21.125 -3.42 21.125 -7.5 21.125 C-7.5 21.785 -7.5 22.445 -7.5 23.125 C-1.89 23.125 3.72 23.125 9.5 23.125 C9.5 21.145 9.5 19.165 9.5 17.125 C8.84 17.125 8.18 17.125 7.5 17.125 C7.5 15.145 7.5 13.165 7.5 11.125 C9.875 10.5 9.875 10.5 12.5 10.125 C13.16 10.785 13.82 11.445 14.5 12.125 C14.25 14.1875 14.25 14.1875 13.5 17.125 C12.84 20.095 12.18 23.065 11.5 26.125 C5.23 26.125 -1.04 26.125 -7.5 26.125 C-7.5 26.785 -7.5 27.445 -7.5 28.125 C-3.58305929 27.98600313 0.33347102 27.83761867 4.25 27.6875 C5.36117187 27.64818359 6.47234375 27.60886719 7.6171875 27.56835938 C9.22207031 27.50551758 9.22207031 27.50551758 10.859375 27.44140625 C12.33615723 27.38641968 12.33615723 27.38641968 13.84277344 27.33032227 C16.45283881 27.20777389 16.45283881 27.20777389 18.72753906 26.54272461 C20.5 26.125 20.5 26.125 22.5 27.125 C22.5 29.105 22.5 31.085 22.5 33.125 C18.75 34.25 18.75 34.25 16.5 33.125 C14.68828902 32.97193099 12.8716206 32.87553339 11.0546875 32.80859375 C9.97832031 32.76669922 8.90195312 32.72480469 7.79296875 32.68164062 C6.66503906 32.64232422 5.53710938 32.60300781 4.375 32.5625 C3.23933594 32.51931641 2.10367188 32.47613281 0.93359375 32.43164062 C-1.87747768 32.3253396 -4.68863945 32.22330595 -7.5 32.125 C-7.5 32.785 -7.5 33.445 -7.5 34.125 C-1.23 34.125 5.04 34.125 11.5 34.125 C12.16 37.095 12.82 40.065 13.5 43.125 C13.7475 44.094375 13.995 45.06375 14.25 46.0625 C14.3325 46.743125 14.415 47.42375 14.5 48.125 C13.84 48.785 13.18 49.445 12.5 50.125 C9.875 49.75 9.875 49.75 7.5 49.125 C7.5 47.145 7.5 45.165 7.5 43.125 C8.16 43.125 8.82 43.125 9.5 43.125 C9.5 41.145 9.5 39.165 9.5 37.125 C3.89 37.125 -1.72 37.125 -7.5 37.125 C-7.5 37.785 -7.5 38.445 -7.5 39.125 C-3.54 39.125 0.42 39.125 4.5 39.125 C4.5 40.115 4.5 41.105 4.5 42.125 C1.53 42.62 1.53 42.62 -1.5 43.125 C-0.51 43.785 0.48 44.445 1.5 45.125 C1.9765625 47.03515625 1.9765625 47.03515625 2.125 49.1875 C2.05620816 52.89350197 2.05620816 52.89350197 3.5 54.125 C3.625 56.625 3.625 56.625 3.5 59.125 C2.5 60.125 2.5 60.125 0 60.25 C-2.5 60.125 -2.5 60.125 -3.5 59.125 C-3.54063832 57.45882885 -3.542721 55.79111905 -3.5 54.125 C-2.84 54.125 -2.18 54.125 -1.5 54.125 C-1.83 51.815 -2.16 49.505 -2.5 47.125 C-3.35722656 47.17140625 -4.21445312 47.2178125 -5.09765625 47.265625 C-17.05512546 47.64308739 -17.05512546 47.64308739 -22.5 43.125 C-26.08777933 38.7644682 -27.76930283 33.76958742 -27.5 28.125 C-26.32425146 22.50637867 -23.95581465 18.82006581 -19.5 15.125 C-15.94140495 12.82190927 -12.9277169 12.91644566 -8.75 13 C-7.57953125 13.01804687 -6.4090625 13.03609375 -5.203125 13.0546875 C-3.86507812 13.08949219 -3.86507812 13.08949219 -2.5 13.125 C-2.17 10.815 -1.84 8.505 -1.5 6.125 C-2.16 6.125 -2.82 6.125 -3.5 6.125 C-3.542721 4.45888095 -3.54063832 2.79117115 -3.5 1.125 C-2.5 0.125 -2.5 0.125 0 0 Z " fill="#458FFE" transform="translate(41.5,1.875)"/>
<path d="M0 0 C1.99954746 -0.04254356 4.00041636 -0.04080783 6 0 C7 1 7 1 7.1328125 3.21484375 C7.13023438 4.11332031 7.12765625 5.01179687 7.125 5.9375 C7.12886719 7.28134766 7.12886719 7.28134766 7.1328125 8.65234375 C7 11 7 11 6 13 C3.890625 13.7109375 3.890625 13.7109375 1.25 14.375 C-4.32142732 15.9725134 -7.5758105 17.76198793 -10.75 22.75 C-13.19630131 29.11038341 -13.7474316 33.95381616 -10.9921875 40.18359375 C-7.58541835 46.42039555 -2.78721153 48.07621028 3.671875 50.10546875 C6 51 6 51 7 53 C7.09534254 54.6853196 7.12985758 56.37449266 7.125 58.0625 C7.12886719 59.41021484 7.12886719 59.41021484 7.1328125 60.78515625 C7 63 7 63 6 64 C4.00041636 64.04080783 1.99954746 64.04254356 0 64 C-0.226875 63.21625 -0.45375 62.4325 -0.6875 61.625 C-1.77798662 58.88841815 -1.77798662 58.88841815 -4.125 57.625 C-6.92917423 57.01539691 -8.25548997 57.1278812 -11 57.625 C-14.30533968 58.14985545 -14.81892898 58.10016694 -17.9375 56.375 C-20.23580883 53.72846256 -20.83074504 52.46972662 -21 49 C-20.814375 48.175 -20.62875 47.35 -20.4375 46.5 C-19.87476364 43.28436368 -20.33851988 41.79430747 -22 39 C-24.52372901 37.63921965 -24.52372901 37.63921965 -27 37 C-27 33.7 -27 30.4 -27 27 C-26.21625 26.773125 -25.4325 26.54625 -24.625 26.3125 C-21.88841815 25.22201338 -21.88841815 25.22201338 -20.625 22.875 C-20.01539691 20.07082577 -20.1278812 18.74451003 -20.625 16 C-21.14985545 12.69466032 -21.10016694 12.18107102 -19.375 9.0625 C-16.72846256 6.76419117 -15.46972662 6.16925496 -12 6 C-11.175 6.185625 -10.35 6.37125 -9.5 6.5625 C-6.28436368 7.12523636 -4.79430747 6.66148012 -2 5 C-0.63921965 2.47627099 -0.63921965 2.47627099 0 0 Z " fill="#4690FE" transform="translate(27,0)"/>
<path d="M0 0 C0.66 0 1.32 0 2 0 C2 2.97 2 5.94 2 9 C1.00419922 9.25523438 1.00419922 9.25523438 -0.01171875 9.515625 C-6.87395997 11.39898464 -10.88178909 13.25205071 -15.3125 19 C-18.22973106 24.50241957 -17.89286842 31.21561152 -16.4921875 37.15234375 C-14.44463008 42.53012388 -10.87929809 45.90374278 -6 48.75 C-3.29248287 49.87813214 -0.8923341 50.57465675 2 51 C2 53.97 2 56.94 2 60 C0.515 59.505 0.515 59.505 -1 59 C-1 57.35 -1 55.7 -1 54 C-1.86625 53.855625 -2.7325 53.71125 -3.625 53.5625 C-5.79755999 53.20040667 -7.96524385 52.80695123 -10.125 52.375 C-12.91135455 51.81820588 -12.91135455 51.81820588 -15.1875 52.625 C-17 53 -17 53 -18.8125 52.0625 C-20.44566644 49.22594776 -19.73311993 47.11423258 -19.1953125 43.99609375 C-18.92770097 41.26110395 -19.81714894 39.4352816 -21 37 C-21 36.01 -21 35.02 -21 34 C-21.804375 34.020625 -22.60875 34.04125 -23.4375 34.0625 C-26 34 -26 34 -27 33 C-27.125 30 -27.125 30 -27 27 C-26 26 -26 26 -23.4375 25.9375 C-22.2309375 25.9684375 -22.2309375 25.9684375 -21 26 C-20.855625 25.13375 -20.71125 24.2675 -20.5625 23.375 C-20.20040667 21.20244001 -19.80695123 19.03475615 -19.375 16.875 C-18.81820588 14.08864545 -18.81820588 14.08864545 -19.625 11.8125 C-20 10 -20 10 -19.0625 8.1875 C-16.21144793 6.54598517 -14.05978821 7.26611958 -10.92578125 7.8046875 C-8.42085019 8.0587373 -7.1175879 7.28567837 -5 6 C-3.68 6 -2.36 6 -1 6 C-1.020625 5.195625 -1.04125 4.39125 -1.0625 3.5625 C-1 1 -1 1 0 0 Z " fill="#DBE6FC" transform="translate(29,2)"/>
<path d="M0 0 C0 9.9 0 19.8 0 30 C-6.27492483 28.9541792 -7.1977901 28.62430933 -11 24 C-13.81465317 19.53537773 -14.64575495 16.25829029 -14 11 C-12.47777265 6.68702249 -10.36393596 3.92501655 -6.4375 1.5625 C-3 0 -3 0 0 0 Z " fill="#9ABCF7" transform="translate(31,17)"/>
<path d="M0 0 C0.99 0.33 1.98 0.66 3 1 C2.62875 1.5775 2.2575 2.155 1.875 2.75 C0.70833333 5 0.70833333 5 1.875 7.25 C2.24625 7.8275 2.6175 8.405 3 9 C1.35 7.68 -0.3 6.36 -2 5 C-1.125 1.125 -1.125 1.125 0 0 Z " fill="#EAF1FE" transform="translate(11,10)"/>
</svg>
