<?xml version="1.0" standalone="no"?>
<!DOCTYPE svg PUBLIC "-//W3C//DTD SVG 20010904//EN"
 "http://www.w3.org/TR/2001/REC-SVG-20010904/DTD/svg10.dtd">
<svg version="1.0" xmlns="http://www.w3.org/2000/svg"
 width="500.000000pt" height="500.000000pt" viewBox="0 0 500.000000 500.000000"
 preserveAspectRatio="xMidYMid meet">

<g transform="translate(0.000000,500.000000) scale(0.100000,-0.100000)"
fill="#000000" stroke="none">
<path d="M1851 3800 c-133 -28 -241 -145 -241 -262 l0 -28 366 0 c343 0 365
-1 360 -17 -3 -10 -26 -90 -51 -179 l-47 -161 -97 -47 c-190 -94 -391 -227
-494 -325 -108 -103 -160 -210 -133 -275 18 -44 67 -83 128 -101 69 -20 75
-19 51 8 -74 79 -26 218 121 354 314 291 910 557 1546 691 71 15 12 13 -117
-3 -185 -24 -418 -80 -609 -145 -32 -11 -58 -19 -60 -17 -1 1 31 115 71 252
41 137 72 252 69 255 -10 9 -818 9 -863 0z"/>
<path d="M2897 3803 c-2 -5 -21 -66 -42 -138 -21 -71 -40 -136 -43 -143 -4
-11 28 -13 174 -10 162 3 184 5 231 27 89 40 162 136 176 234 l6 37 -249 0
c-137 0 -251 -3 -253 -7z"/>
<path d="M3339 3381 c-34 -27 -32 -86 4 -117 22 -19 27 -32 27 -69 l0 -45
-159 0 c-154 0 -160 -1 -211 -27 -31 -17 -65 -45 -84 -71 l-31 -44 -3 -246
c-2 -161 1 -260 8 -285 14 -48 62 -102 114 -130 40 -21 50 -22 391 -22 343 0
351 0 392 22 23 13 53 38 67 56 52 68 56 90 56 324 0 120 -5 234 -10 254 -15
52 -49 99 -98 134 l-44 30 -174 3 -174 4 0 44 c0 35 5 47 25 60 25 16 42 55
36 84 -10 54 -87 78 -132 41z m341 -470 c14 -10 33 -34 43 -54 45 -89 -45
-193 -143 -167 -57 15 -90 60 -90 120 0 103 105 159 190 101z m-449 4 c58 -31
85 -108 56 -165 -17 -33 -74 -70 -109 -70 -65 0 -128 62 -128 125 0 63 63 123
128 125 13 0 36 -7 53 -15z m99 -305 c48 -25 56 -25 102 -1 31 18 38 18 54 5
18 -13 18 -15 -9 -39 -51 -45 -148 -45 -194 1 -20 20 -22 28 -13 39 15 19 13
19 60 -5z"/>
<path d="M3565 2855 c-14 -13 -25 -33 -25 -45 0 -28 43 -70 73 -70 31 0 67 39
67 72 0 30 -41 68 -72 68 -10 0 -30 -11 -43 -25z"/>
<path d="M3127 2852 c-39 -43 -8 -114 49 -114 56 0 87 70 49 112 -23 25 -76
26 -98 2z"/>
<path d="M2445 3072 c-89 -48 -258 -157 -277 -180 -8 -9 -36 -91 -62 -182 -26
-91 -49 -173 -52 -183 -5 -16 5 -17 141 -15 l147 3 55 185 c98 334 120 410
119 410 0 0 -32 -17 -71 -38z"/>
<path d="M2775 2941 c-49 -21 -60 -47 -63 -158 -5 -137 13 -182 81 -198 l27
-7 0 186 c0 196 0 195 -45 177z"/>
<path d="M3968 2765 c2 -116 7 -185 13 -185 20 0 69 31 79 49 5 11 10 72 10
136 0 64 -5 125 -10 136 -11 20 -60 49 -82 49 -10 0 -12 -38 -10 -185z"/>
<path d="M1179 2160 c-57 -7 -97 -32 -104 -65 -3 -14 -7 -35 -10 -47 -6 -34
11 -98 32 -120 11 -11 46 -23 84 -29 118 -20 111 -16 107 -52 l-3 -32 -102 -3
-103 -3 0 -44 0 -45 125 0 c123 0 125 0 157 29 28 24 32 36 36 90 5 68 -10
116 -40 132 -11 6 -54 16 -96 22 -77 12 -77 12 -80 45 -3 31 -2 32 35 33 21 1
66 0 101 -1 l62 -2 0 41 c0 34 -4 41 -22 45 -45 9 -134 12 -179 6z"/>
<path d="M2865 2160 c-107 -13 -125 -44 -125 -220 0 -195 22 -221 185 -221
104 0 155 15 177 53 9 16 13 66 13 168 0 157 -6 180 -53 203 -33 17 -130 26
-197 17z m128 -100 c13 -12 20 -159 10 -205 l-9 -40 -59 -3 c-79 -4 -85 5 -85
128 0 104 8 126 50 133 30 5 82 -2 93 -13z"/>
<path d="M1480 1980 c0 -117 4 -188 12 -205 19 -42 58 -56 156 -56 168 0 176
10 180 258 l4 183 -56 0 -56 0 0 -152 c0 -84 -3 -163 -6 -175 -7 -27 -56 -39
-97 -24 l-27 11 0 170 0 170 -55 0 -55 0 0 -180z"/>
<path d="M1920 1940 l0 -220 55 0 55 0 0 69 0 68 87 5 c82 4 87 6 115 36 25
30 28 39 28 108 0 89 -16 127 -61 143 -18 6 -88 11 -155 11 l-124 0 0 -220z
m218 118 c7 -7 12 -28 12 -48 0 -48 -15 -60 -72 -60 l-48 0 0 60 0 60 48 0
c26 0 53 -5 60 -12z"/>
<path d="M2330 1941 l0 -221 60 0 60 0 0 70 0 70 68 0 c77 0 129 21 150 60 8
16 12 53 10 102 -3 69 -6 81 -31 105 -27 28 -29 28 -172 31 l-145 3 0 -220z
m228 117 c7 -7 12 -28 12 -48 0 -48 -15 -60 -72 -60 l-48 0 0 60 0 60 48 0
c26 0 53 -5 60 -12z"/>
<path d="M3200 1940 l0 -220 55 0 55 0 0 76 0 75 42 -3 42 -3 27 -70 26 -70
57 -3 c31 -2 56 -1 56 2 0 3 -14 40 -30 82 l-30 76 25 30 c25 30 31 57 26 138
-6 95 -37 110 -221 110 l-130 0 0 -220z m238 85 c4 -50 -15 -65 -80 -65 l-48
0 0 55 0 56 63 -3 62 -3 3 -40z"/>
<path d="M3600 2115 l0 -45 60 0 60 0 0 -175 0 -175 55 0 55 0 2 173 3 172 63
3 62 3 0 44 0 45 -180 0 -180 0 0 -45z"/>
<path d="M1139 1514 c-11 -14 -10 -18 6 -30 10 -8 23 -14 28 -14 4 0 6 -4 3
-9 -3 -5 -16 -7 -29 -4 -17 4 -19 3 -11 -6 16 -18 58 -10 62 11 2 12 -6 22
-25 30 l-28 12 28 4 c15 2 25 8 22 13 -10 14 -41 11 -56 -7z"/>
<path d="M1316 1518 c-4 -10 -4 -30 1 -45 8 -22 16 -28 39 -28 27 0 29 3 32
43 2 29 0 42 -7 37 -6 -3 -11 -20 -11 -36 0 -45 -33 -35 -41 11 -4 27 -7 31
-13 18z"/>
<path d="M1510 1485 c0 -25 5 -45 10 -45 6 0 10 4 10 9 0 5 11 12 25 15 29 7
35 50 9 60 -42 16 -54 8 -54 -39z m50 10 c0 -8 -7 -15 -15 -15 -8 0 -15 7 -15
15 0 8 7 15 15 15 8 0 15 -7 15 -15z"/>
<path d="M1700 1485 c0 -25 5 -45 10 -45 6 0 10 4 10 9 0 5 11 12 25 15 29 7
35 50 9 60 -42 16 -54 8 -54 -39z m50 10 c0 -8 -7 -15 -15 -15 -8 0 -15 7 -15
15 0 8 7 15 15 15 8 0 15 -7 15 -15z"/>
<path d="M1908 1519 c-36 -21 -16 -79 27 -79 42 0 59 44 29 74 -18 18 -32 20
-56 5z m47 -34 c0 -13 -8 -21 -22 -23 -17 -3 -23 2 -23 16 0 10 3 22 7 26 13
13 38 1 38 -19z"/>
<path d="M2097 1523 c-11 -10 -8 -83 3 -83 6 0 10 5 10 10 0 6 7 10 15 10 8 0
15 -4 15 -10 0 -5 8 -10 17 -10 13 0 14 3 6 11 -9 9 -9 17 0 31 10 16 9 22 -7
34 -21 15 -48 18 -59 7z m46 -28 c1 -5 -6 -11 -15 -13 -11 -2 -18 3 -18 13 0
17 30 18 33 0z"/>
<path d="M2275 1520 c-3 -5 1 -10 9 -10 12 0 16 -10 16 -35 0 -19 5 -35 10
-35 6 0 10 16 10 35 0 24 5 35 15 35 8 0 15 5 15 10 0 6 -15 10 -34 10 -19 0
-38 -4 -41 -10z"/>
<path d="M2603 1523 c-21 -8 -15 -33 12 -45 28 -13 25 -29 -5 -21 -12 3 -20 0
-20 -6 0 -8 12 -11 32 -9 42 4 51 34 14 44 -31 7 -34 24 -5 24 11 0 17 5 14
10 -7 11 -22 12 -42 3z"/>
<path d="M2770 1485 c0 -45 0 -45 36 -45 21 0 33 4 29 10 -3 6 -15 10 -26 10
-26 0 -24 18 4 23 l22 4 -22 2 c-32 2 -29 21 3 21 14 0 23 4 19 10 -3 6 -19
10 -36 10 -28 0 -29 -2 -29 -45z"/>
<path d="M2950 1485 c0 -25 5 -45 10 -45 6 0 10 5 10 10 0 6 7 10 15 10 8 0
15 -4 15 -10 0 -5 4 -10 8 -10 14 0 13 73 -1 82 -6 4 -22 8 -34 8 -21 0 -23
-5 -23 -45z m50 10 c0 -8 -7 -15 -15 -15 -8 0 -15 7 -15 15 0 8 7 15 15 15 8
0 15 -7 15 -15z"/>
<path d="M3132 1523 c2 -5 10 -25 18 -45 18 -49 34 -48 54 2 19 47 19 50 7 50
-5 0 -14 -15 -21 -32 l-12 -33 -14 33 c-8 17 -19 32 -25 32 -6 0 -9 -3 -7 -7z"/>
<path d="M3337 1523 c-11 -10 -8 -83 3 -83 6 0 10 20 10 45 0 46 -2 50 -13 38z"/>
<path d="M3488 1519 c-21 -12 -24 -49 -6 -67 15 -15 58 -16 58 -2 0 6 -12 10
-26 10 -21 0 -25 4 -22 23 2 16 9 22 26 21 12 0 21 4 19 10 -5 15 -29 18 -49
5z"/>
<path d="M3660 1485 c0 -45 0 -45 36 -45 21 0 33 4 29 10 -3 6 -15 10 -26 10
-26 0 -24 18 4 23 l22 4 -22 2 c-32 2 -29 21 3 21 14 0 23 4 19 10 -3 6 -19
10 -36 10 -28 0 -29 -2 -29 -45z"/>
</g>
</svg>
